<svg data-v-0dd9719b="" version="1.0" xmlns="http://www.w3.org/2000/svg" xmlns:xlink="http://www.w3.org/1999/xlink" width="100%" height="100%" viewBox="0 0 340.000000 250.000000" preserveAspectRatio="xMidYMid meet" color-interpolation-filters="sRGB" style="margin: auto;"> <rect data-v-0dd9719b="" x="0" y="0" width="100%" height="100%" fill="#fff" fill-opacity="1" class="background"></rect> <rect data-v-0dd9719b="" x="0" y="0" width="100%" height="100%" fill="url(#watermark)" fill-opacity="1" class="watermarklayer"></rect> <g data-v-0dd9719b="" fill="#333" class="icon-text-wrapper icon-svg-group iconsvg" transform="translate(66.29499816894531,95.03805160522461)"><g class="iconsvg-imagesvg" transform="translate(0,0)"><g><rect fill="#333" fill-opacity="0" stroke-width="2" x="0" y="0" width="60" height="59.9238966512529" class="image-rect"></rect> <svg x="0" y="0" width="60" height="59.9238966512529" filtersec="colorsb906521859" class="image-svg-svg primary" style="overflow: visible;"><svg xmlns="http://www.w3.org/2000/svg" viewBox="-0.013412523083388805 0 100.12681579589844 100"><g fill-rule="evenodd"><path d="M50.05 64.56a33.61 33.61 0 0 1-33.61-33.62 2.25 2.25 0 0 1 4.5 0 29.11 29.11 0 0 0 29.11 29.12 9 9 0 1 1 0 18 2.25 2.25 0 1 1 0-4.49 4.5 4.5 0 0 0 3.19-1.33 4.51 4.51 0 0 0-3.19-7.69zm0-12.31a21.31 21.31 0 0 1-2.25-42.5V0a50.05 50.05 0 0 0 0 100v-9.74a21.27 21.27 0 0 1-13.54-6.9 2.24 2.24 0 1 1 3.32-3 17 17 0 0 0 5.66 4.1 16.82 16.82 0 1 0 6.81-32.2z" fill="#0d72ff"></path><path d="M50.05 35.45a33.63 33.63 0 0 1 33.62 33.62 2.25 2.25 0 0 1-4.5 0A29.12 29.12 0 0 0 50.05 40a9 9 0 0 1 0-18 2.25 2.25 0 0 1 0 4.5 4.51 4.51 0 1 0 0 9zm0 12.3a21.32 21.32 0 0 1 2.25 42.51V100a50.05 50.05 0 0 0 0-100v9.75a21.36 21.36 0 0 1 13.55 6.89 2.24 2.24 0 0 1-3.33 3 16.82 16.82 0 1 0-12.47 28.1z" fill="#0daeff"></path></g></svg></svg> <!----></g></g> <g transform="translate(67,4.220699310302734)"><g data-gra="path-name" fill-rule="" class="tp-name iconsvg-namesvg" transform="translate(0,0)"><g transform="scale(1)"><g><path d="M17.68-14.08Q19.71-8.59 24.32-4.75 28.93-0.9 34.83 1.03L34.83 1.03Q33.12 1.48 31.95 2.65L31.95 2.65Q31.68 2.92 31.36 3.13 31.05 3.33 30.73 3.33L30.73 3.33Q30.29 3.33 29.43 2.88L29.43 2.88Q19.98-2.52 16.92-14.08L16.92-14.08 11.61-14.08 11.61-0.09Q17.82-1.8 20.38-2.65L20.38-2.65 20.52-2.16Q15.71 1.17 10.13 4.37L10.13 4.37Q9.49 4.77 8.82 4.77L8.82 4.77Q7.6 4.77 7.33 3.53 7.06 2.29 7.06 1.17L7.06 1.17 8.64 0.72 8.64-14.08 2.52-14.08Q2.29-14.08 2.11-14.26 1.93-14.45 1.93-14.67L1.93-14.67Q1.93-14.89 2.11-15.07 2.29-15.25 2.52-15.25L2.52-15.25 8.64-15.25 8.64-31.05Q8.78-31.09 9.29-31.23 9.81-31.36 10.3-31.36L10.3-31.36Q11.61-31.36 11.61-30.24L11.61-30.24 11.61-18.5Q15.66-20.97 19.64-24.19 23.63-27.4 26.01-30.06L26.01-30.06Q26.19-30.02 26.84-29.72 27.49-29.43 28.08-28.96 28.66-28.48 28.66-27.95L28.66-27.95Q28.66-27.45 28.04-27L28.04-27Q25.11-24.57 20.65-21.94 16.2-19.3 11.61-17.46L11.61-17.46 11.61-15.25 29.79-15.21Q30.6-15.21 31.05-15.39 31.5-15.57 31.95-15.93L31.95-15.93Q32.17-16.11 32.4-16.22 32.63-16.34 32.85-16.34L32.85-16.34Q33.3-16.34 33.64-16 33.98-15.66 33.98-15.21L33.98-15.21Q33.98-14.76 33.66-14.42 33.34-14.08 32.85-14.08L32.85-14.08 17.68-14.08ZM57.6-8.19L57.6-31.05Q57.73-31.09 58.21-31.23 58.68-31.36 59.13-31.36L59.13-31.36Q60.34-31.36 60.34-30.24L60.34-30.24 60.34-8.78Q60.34-7.96 59.13-7.96L59.13-7.96Q58.68-7.96 58.21-8.05 57.73-8.14 57.6-8.19L57.6-8.19ZM44.55-23.58Q44.05-25.06 42.75-26.89 41.45-28.71 40.05-30.11L40.05-30.11 40.32-30.38Q43.38-29.88 44.75-28.84 46.13-27.81 46.13-26.5L46.13-26.5Q46.13-25.02 44.55-23.58L44.55-23.58ZM47.61-10.13L47.07-10.48Q48.47-13.05 49.7-16.72 50.94-20.38 51.66-24.16L51.66-24.16Q51.75-24.16 52.02-24.21 52.29-24.25 52.7-24.25L52.7-24.25Q54.67-24.25 54.67-22.81L54.67-22.81Q54.67-22.45 54.54-21.96L54.54-21.96Q53.19-18.31 51.41-15.25 49.63-12.2 47.61-10.13L47.61-10.13ZM67.68-13.54Q67.41-15.84 65.79-18.92 64.17-22 62.41-23.89L62.41-23.89 62.82-24.21Q69.84-21.29 69.84-17.68L69.84-17.68Q69.84-15.71 67.68-13.54L67.68-13.54ZM41.31-14.67Q40.81-16.16 39.51-17.89 38.2-19.62 36.85-20.88L36.85-20.88 37.13-21.15Q40.14-20.65 41.49-19.66 42.84-18.68 42.84-17.46L42.84-17.46Q42.84-15.97 41.31-14.67L41.31-14.67ZM45.41 5.17L45.23 4.54Q60.12-0.22 65.47-13.54L65.47-13.54Q65.47-13.59 66.22-13.5 66.96-13.41 67.55-13.03 68.13-12.64 68.13-11.79L68.13-11.79Q68.13-11.29 67.86-10.62L67.86-10.62Q64.35-3.55 58.66 0.2 52.97 3.96 45.41 5.17L45.41 5.17ZM38.02 3.1Q40.45-0.04 42.01-3.89 43.56-7.74 44.77-13.18L44.77-13.18 45.31-13.05Q44.82-6.84 44.28-3.04 43.74 0.77 42.88 2.72 42.03 4.68 40.77 4.68L40.77 4.68Q39.6 4.68 38.02 3.1L38.02 3.1ZM80.46-21.46L80.46-19.48Q80.46-13.46 79.92-9.67L79.92-9.67 79.78-8.78Q78.34-0.09 73.67 5.13L73.67 5.13 73.13 4.77Q75.87-0.14 76.72-5.98 77.58-11.83 77.58-19.44L77.58-19.44 77.58-29.92Q77.72-29.97 78.17-30.08 78.61-30.2 79.11-30.2L79.11-30.2Q80.46-30.2 80.46-29.07L80.46-29.07 100.66-29.07 100.66-29.97Q100.8-30.02 101.27-30.15 101.75-30.29 102.24-30.29L102.24-30.29Q103.5-30.29 103.5-29.16L103.5-29.16 103.5-21.06Q103.5-20.25 102.24-20.25L102.24-20.25Q101.75-20.25 101.27-20.34 100.8-20.43 100.66-20.47L100.66-20.47 100.66-21.46 80.46-21.46ZM100.66-22.68L100.66-27.9 80.46-27.9 80.46-22.68 100.66-22.68ZM96.84-2.11Q100.48 0.72 106.65 1.89L106.65 1.89Q105.88 2.02 105.46 2.34 105.03 2.65 104.58 3.24L104.58 3.24Q104.09 3.82 103.7 4.09 103.32 4.37 102.69 4.37L102.69 4.37Q102.28 4.37 101.75 4.23L101.75 4.23Q97.69 2.38 95.11-0.65 92.52-3.69 91.17-8.55L91.17-8.55 87.08-8.55 87.08 0.99Q91.17-0.36 92.97-1.08L92.97-1.08 93.11-0.54Q89.5 2.11 85.72 4.54L85.72 4.54Q85.19 4.95 84.69 4.95L84.69 4.95Q83.75 4.95 83.39 3.69 83.03 2.43 83.03 1.8L83.03 1.8 84.33 1.48 84.33-8.55 80.78-8.55Q80.55-8.55 80.39-8.73 80.23-8.91 80.23-9.13L80.23-9.13Q80.23-9.36 80.39-9.54 80.55-9.72 80.78-9.72L80.78-9.72 86.08-9.72 86.08-15.03 81.54-15.03Q81.31-15.03 81.14-15.21 80.95-15.39 80.95-15.62L80.95-15.62Q80.95-15.84 81.14-16.02 81.31-16.2 81.54-16.2L81.54-16.2 86.08-16.2 86.08-20.43Q86.22-20.47 86.69-20.61 87.16-20.75 87.61-20.75L87.61-20.75Q88.83-20.75 88.83-19.62L88.83-19.62 88.83-16.2 94.72-16.2 94.72-20.43Q94.86-20.47 95.33-20.61 95.81-20.75 96.25-20.75L96.25-20.75Q97.47-20.75 97.47-19.62L97.47-19.62 97.47-16.2 99.94-16.2Q100.75-16.2 101.23-16.38 101.7-16.56 101.95-16.76 102.19-16.96 102.28-17.01L102.28-17.01Q102.56-17.23 102.91-17.28L102.91-17.28 102.91-17.28 102.96-17.28 102.96-17.28 103-17.28 103-17.28Q103.5-17.28 103.81-16.96 104.13-16.65 104.13-16.16L104.13-16.16Q104.13-15.71 103.81-15.37 103.5-15.03 103-15.03L103-15.03 97.47-15.03 97.47-9.72 102.11-9.72Q102.91-9.72 103.36-9.9 103.81-10.08 104.27-10.44L104.27-10.44Q104.35-10.48 104.6-10.64 104.85-10.8 105.16-10.8L105.16-10.8Q105.66-10.8 105.97-10.48 106.29-10.17 106.29-9.67L106.29-9.67Q106.29-9.22 105.97-8.89 105.66-8.55 105.16-8.55L105.16-8.55 91.94-8.55Q93.28-5.26 96.08-2.75L96.08-2.75Q97.83-4.41 100.94-8.01L100.94-8.01Q101.11-7.96 101.7-7.72 102.28-7.47 102.83-7.06 103.36-6.66 103.36-6.17L103.36-6.17Q103.36-5.67 102.83-5.26L102.83-5.26Q99.5-3.33 96.84-2.11L96.84-2.11ZM94.72-15.03L88.83-15.03 88.83-9.72 94.72-9.72 94.72-15.03ZM116.1-22.95Q115.61-24.7 113.98-27.27 112.36-29.83 111.24-30.69L111.24-30.69 111.6-31.32Q117.67-29.29 117.67-26.23L117.67-26.23Q117.67-24.66 116.1-22.95L116.1-22.95ZM142.34-4.63Q142.25-4.23 142.02-2.79 141.8-1.35 141.8 0.14L141.8 0.14Q141.8 1.93 142.2 2.92L142.2 2.92Q142.29 3.28 142.29 3.51L142.29 3.51Q142.29 4.14 141.88 4.59 141.48 5.04 140.85 5.04L140.85 5.04Q140.49 5.04 139.95 4.81L139.95 4.81Q139.37 4.54 138.65 3.87L138.65 3.87Q135.94 1.57 135-4.68 134.06-10.93 134.06-20.43L134.06-20.43Q134.06-24.97 134.1-27.18L134.1-27.18 127.39-27.18 127.39-15.16 129.38-15.16Q130.19-15.16 130.63-15.34 131.09-15.52 131.49-15.84L131.49-15.84Q131.72-16.02 131.94-16.13 132.16-16.25 132.44-16.25L132.44-16.25Q132.93-16.25 133.25-15.93 133.56-15.62 133.56-15.12L133.56-15.12Q133.56-14.67 133.25-14.33 132.93-13.99 132.44-13.99L132.44-13.99 127.39-13.99 127.39 4.18Q127.39 5.04 126.18 5.04L126.18 5.04Q125.69 5.04 125.21 4.93 124.74 4.81 124.61 4.77L124.61 4.77 124.61-13.99 118.8-13.99Q118.58-13.99 118.39-14.17 118.22-14.35 118.22-14.58L118.22-14.58Q118.22-14.8 118.39-14.98 118.58-15.16 118.8-15.16L118.8-15.16 124.61-15.16 124.61-27.18 119.43-27.18Q119.2-27.18 119.03-27.36 118.84-27.54 118.84-27.77L118.84-27.77Q118.84-27.99 119.03-28.17 119.2-28.35 119.43-28.35L119.43-28.35 134.15-28.35 134.19-29.25Q134.32-29.34 134.89-29.54 135.45-29.74 135.94-29.74L135.94-29.74Q137.12-29.74 137.07-28.35L137.07-28.35Q136.84-23.94 136.84-19.3L136.84-19.3Q136.84-12.78 137.41-7.76 137.97-2.75 139.28-0.77L139.28-0.77Q139.63-0.22 140-0.22L140-0.22Q141.07-0.22 141.66-4.81L141.66-4.81 142.34-4.63ZM116.5-3.19Q120.11-5.54 121.14-6.3L121.14-6.3 121.41-5.85Q117.81-1.17 115.29 1.84L115.29 1.84Q114.66 2.61 114.12 2.61L114.12 2.61Q113.58 2.61 113.17 1.91 112.77 1.21 112.59 0.47 112.41-0.27 112.36-0.49L112.36-0.49 113.81-1.44 113.81-19.62 109.53-19.62Q109.31-19.62 109.13-19.8 108.94-19.98 108.94-20.2L108.94-20.2Q108.94-20.43 109.13-20.61 109.31-20.79 109.53-20.79L109.53-20.79 113.81-20.79 113.81-21.55Q113.94-21.6 114.39-21.73 114.84-21.87 115.29-21.87L115.29-21.87Q116.5-21.87 116.5-20.75L116.5-20.75 116.5-3.19Z" transform="translate(-1.9300000667572021, 31.360000610351562)"></path></g> <!----> <!----> <!----> <!----> <!----> <!----> <!----></g></g> <g data-gra="path-slogan" fill-rule="" class="tp-slogan iconsvg-slogansvg" fill="#333" transform="translate(6.525001525878906,42.529998779296875)"><rect width="0"></rect> <rect x="130.36000061035156" width="0.0500030517578125"></rect> <g transform="translate(0,0)"><g transform="scale(1)"><path d="M8.06-6.05L8.06-6.05L6.94-6.05Q6.52-7.78 4.55-7.83L4.55-7.83Q1.83-7.69 1.73-4.36L1.73-4.36Q1.73-0.80 4.59-0.80L4.59-0.80Q6.56-0.84 7.03-3.19L7.03-3.19L8.16-3.19Q7.64 0.05 4.36 0.14L4.36 0.14Q0.61 0 0.52-4.31L0.52-4.31Q0.70-8.63 4.55-8.81L4.55-8.81Q7.59-8.72 8.06-6.05ZM10.69-5.06L15.19-5.06L15.19-8.58L16.36-8.58L16.36 0L15.19 0L15.19-3.98L10.69-3.98L10.69 0L9.52 0L9.52-8.58L10.69-8.58L10.69-5.06ZM23.81 0L22.97-2.48L19.50-2.48L18.61 0L17.44 0L20.67-8.58L21.98-8.58L25.08 0L23.81 0ZM21.23-7.31L19.88-3.52L22.55-3.52L21.28-7.31L21.23-7.31ZM27.52-8.58L31.83-1.64L31.83-8.58L32.95-8.58L32.95 0L31.64 0L27.28-6.94L27.23-6.94L27.23 0L26.11 0L26.11-8.58L27.52-8.58ZM41.16-3.61L38.53-3.61L38.53-4.59L42.28-4.59L42.28 0L41.53 0L41.25-1.08Q40.27 0.09 38.44 0.14L38.44 0.14Q36.70 0.14 35.77-0.75L35.77-0.75Q34.36-2.06 34.41-4.36L34.41-4.36Q34.73-8.63 38.48-8.81L38.48-8.81Q41.67-8.63 42.14-6L42.14-6L41.02-6Q40.55-7.78 38.44-7.83L38.44-7.83Q35.77-7.64 35.63-4.31L35.63-4.31Q35.63-0.75 38.48-0.75L38.48-0.75Q39.52-0.75 40.27-1.31L40.27-1.31Q41.20-2.06 41.16-3.61L41.16-3.61ZM50.34-6.09L50.34-6.09L49.27-6.09Q49.17-7.73 47.11-7.83L47.11-7.83Q45.19-7.78 45.19-6.33L45.19-6.33Q45.19-5.39 46.22-5.25L46.22-5.25L48.66-4.69Q50.58-4.22 50.58-2.34L50.58-2.34Q50.53 0.05 47.20 0.14L47.20 0.14Q45.38 0.14 44.63-0.61L44.63-0.61Q43.69-1.31 43.73-2.77L43.73-2.77L44.86-2.77Q44.91-0.80 47.20-0.75L47.20-0.75Q49.45-0.80 49.50-2.20L49.50-2.20Q49.69-3.38 47.63-3.75L47.63-3.75L45.84-4.13Q44.02-4.64 44.02-6.19L44.02-6.19Q44.16-8.72 47.02-8.81L47.02-8.81Q50.25-8.81 50.34-6.09ZM53.20-5.06L57.70-5.06L57.70-8.58L58.88-8.58L58.88 0L57.70 0L57.70-3.98L53.20-3.98L53.20 0L52.03 0L52.03-8.58L53.20-8.58L53.20-5.06ZM66.33 0L65.48-2.48L62.02-2.48L61.13 0L59.95 0L63.19-8.58L64.50-8.58L67.59 0L66.33 0ZM63.75-7.31L62.39-3.52L65.06-3.52L63.80-7.31L63.75-7.31ZM72.80-1.03L78.09-1.03L78.09 0L71.34 0L71.34-0.94L76.59-7.59L71.72-7.59L71.72-8.58L78.09-8.58L78.09-7.59L72.80-1.03ZM80.39-5.06L84.89-5.06L84.89-8.58L86.06-8.58L86.06 0L84.89 0L84.89-3.98L80.39-3.98L80.39 0L79.22 0L79.22-8.58L80.39-8.58L80.39-5.06ZM93.52 0L92.67-2.48L89.20-2.48L88.31 0L87.14 0L90.38-8.58L91.69-8.58L94.78 0L93.52 0ZM90.94-7.31L89.58-3.52L92.25-3.52L90.98-7.31L90.94-7.31ZM97.22-8.58L101.53-1.64L101.53-8.58L102.66-8.58L102.66 0L101.34 0L96.98-6.94L96.94-6.94L96.94 0L95.81 0L95.81-8.58L97.22-8.58ZM111.19-8.58L108.28-4.41L111.33 0L109.88 0L107.53-3.52L105.19 0L103.78 0L106.88-4.41L103.97-8.58L105.42-8.58L107.58-5.30L109.78-8.58L111.19-8.58ZM118.08-3.19L118.08-8.58L119.25-8.58L119.25-3.05Q119.11 0.05 115.73 0.14L115.73 0.14Q112.59 0.05 112.45-2.86L112.45-2.86L112.45-8.58L113.63-8.58L113.63-3.19Q113.67-0.84 115.78-0.80L115.78-0.80Q118.08-0.84 118.08-3.19L118.08-3.19ZM122.44-8.58L126.75-1.64L126.75-8.58L127.88-8.58L127.88 0L126.56 0L122.20-6.94L122.16-6.94L122.16 0L121.03 0L121.03-8.58L122.44-8.58Z" transform="translate(-0.515625, 8.8125)"></path></g></g></g></g></g><defs v-gra="od"></defs></svg>